<?xml version="1.0" encoding="UTF-8"?>
<svg id="Capa_2" data-name="Capa 2" xmlns="http://www.w3.org/2000/svg" xmlns:xlink="http://www.w3.org/1999/xlink" viewBox="0 0 283.46 283.46">
  <defs>
    <style>
      .cls-1 {
        fill: #fff;
      }

      .cls-2 {
        fill: none;
      }

      .cls-3 {
        fill: #e88499;
      }

      .cls-4 {
        clip-path: url(#clippath-1);
      }

      .cls-5 {
        clip-path: url(#clippath);
      }
    </style>
    <clipPath id="clippath">
      <rect class="cls-2" width="283.46" height="283.46"/>
    </clipPath>
    <clipPath id="clippath-1">
      <rect class="cls-2" width="283.46" height="283.46"/>
    </clipPath>
  </defs>
  <g id="Capa_1-2" data-name="Capa 1">
    <rect class="cls-1" width="283.46" height="283.46"/>
    <g id="Ilustración_7" data-name="Ilustración 7">
      <g class="cls-5">
        <g class="cls-4">
          <path class="cls-3" d="M244.36,61.6c0-9.5-52.88-14.63-102.63-14.63s-102.63,5.13-102.63,14.62l-1.4,108.27c0,52.36,42.6,94.96,94.96,94.96h18.15c52.36,0,94.96-42.6,94.96-94.96l-1.4-108.26ZM150.81,263.29h-18.15c-51.52,0-93.43-41.91-93.43-93.42l1.4-108.27c0-2.45,7.66-6.11,29.17-9.04,19.21-2.61,44.75-4.05,71.93-4.05s52.72,1.44,71.93,4.05c21.51,2.93,29.17,6.59,29.17,9.05l1.4,108.26c0,51.51-41.91,93.42-93.43,93.42"/>
          <path class="cls-3" d="M141.73,70.48c52.3,0,94.7-5.11,94.7-9.08,0-5.46-42.4-10.5-94.7-10.5s-94.7,5.04-94.7,10.5c0,3.97,42.4,9.08,94.7,9.08M76.71,55.43c17.92-1.93,41.02-3,65.02-3s47.1,1.06,65.02,3c21.54,2.32,26.66,4.89,27.84,5.79-1.97,1.06-9.62,3.08-28.38,4.91-18.58,1.81-41.48,2.81-64.48,2.81s-45.91-1-64.48-2.81c-18.76-1.83-26.41-3.85-28.38-4.91,1.18-.91,6.3-3.47,27.84-5.79"/>
          <path class="cls-3" d="M148.27,101.69c.91-.66,1.97-1.01,3.03-1.01.63,0,1.26.12,1.86.38,1.72.75,2.68,2.47,2.55,4.61-1.12,6.33-6.54,11.88-11.1,15.54.96-.3,1.93-.59,2.9-.85h0c2.84-.74,5.74-1.28,8.61-1.61,2.2-5.03,2.04-11.68-.46-18.26-1.25-3.62-5.27-5.35-8.1-4.65-.07.02-.14.04-.21.06.98,1.81,1.32,3.95.92,5.78"/>
          <path class="cls-3" d="M136.91,95.34c-1.46-.97-2.98-1.48-4.5-1.48s-3.11.52-4.55,1.57c-3.76,2.76-5.98,8.73-3.39,14.13.67-1.92,2.5-3.13,4.28-4.3,1.97-1.3,3.83-2.53,4.13-4.62-.03-.24.05-.46.23-.64.35-.35,1.11-.54,2.01-.63.08-.95.39-1.95.96-2.94,0,0,.32-.41.83-1.09"/>
          <path class="cls-3" d="M120.31,93.83c-1.5,1.54-3.05,3.14-4.16,4.88-3.29,5.4-4.28,16.22-1.37,21.98-.5-2.01-.29-4.22.64-5.83.88-1.52,2.28-2.39,4.06-2.53.51-1.86.98-3.94,1.44-5.96.54-2.36,1.09-4.8,1.7-6.88,0,0,0,0,0,0,1.85-5.33,7.01-7.36,11.03-6.99,1.42.13,2.93.59,4.26,1.46,1.61-2.26,3.83-5.62,4.76-8.11.07-.2.46-.2.42,0-.79,3.85-.42,5.36,2.34,7.65.4.34.77.72,1.1,1.13,2.01-.91,4.38-.82,6.23.31,6.41,3.63,7.62,15.02,5.56,22.05.45-1.01,1.05-2.09,1.68-3.2,2.33-4.14,4.74-8.41.85-11.62-.1-.12-.26-.25-.42-.38-.36-.3-.77-.64-.8-1.02,0-.15.04-.28.14-.4,1.1-8.95-8.69-12.68-14.62-14.1-1.74-.56-3.4-1.26-5-1.93-3.05-1.28-5.94-2.49-8.75-2.49-.32,0-.63.02-.95.05-1.58.54-3.58,3.52-5.19,5.92-.57.86-1.12,1.67-1.59,2.29-.98,1.3-2.19,2.54-3.35,3.74"/>
          <path class="cls-3" d="M111.29,119.02c-1.03-1.38-2.1-2.81-3.25-4.05-1.53-.74-2.94-1.12-4.11-1.12-.96,0-1.75.25-2.31.76-.73.66-.91,1.67-.5,2.77.95,2.55,5.09,5.58,13.59,5.86-1.21-1.26-2.34-2.77-3.43-4.23"/>
          <path class="cls-3" d="M124.52,133.55c3.84,1.98,8.26,2.21,12.09,2.27,1.35-.1,2.79-.43,4.32-.79,2.98-.69,6.07-1.41,8.65-.25.29-.31.58-.61.87-.91-.18,0-.35,0-.53,0-12.89,0-25.21-3.5-34.05-9.67,1.84,3.93,5.82,7.21,8.65,9.34"/>
          <path class="cls-3" d="M172.04,100.23c2.14.09,4.14,1.28,5.48,3.28,1.5,2.24,1.92,5.07,1.08,7.37-.83,2.15-2.88,3.9-4.87,5.6-2.03,1.74-4.13,3.53-4.83,5.7,3.13-1.13,6.88-1.97,10.41-1.97,2.71,0,5.3.49,7.37,1.73.51.28,1.02.6,1.06,1.05.02.27-.12.53-.45.8-.88.72-2.16,1.08-3.53,1.46-1.68.47-3.41.95-4.44,2.14-3.7,2.71-3.77,6.46-3.85,10.42-.04,1.96-.07,3.98-.59,5.85,2.01-.13,4.32-.97,6.56-1.77,2.12-.76,4.32-1.55,6.29-1.77,5.02-3.73,16.35-13.36,14.29-22.82-.97-4.46-4.13-8.83-7.85-10.88-2.51-1.38-5.12-1.64-7.55-.76-.03.01-.07.01-.11,0-.19-.04-.25-.19-.83-2.04-1.2-3.86-4.03-12.91-8.15-14.57-1.05-.42-2.13-.34-3.22.26-3.74,2.55-7.17,2.39-9.12,1.96,1.48,2.54,3.37,6.49,4.2,9.19.93-.22,1.77-.29,2.64-.23"/>
          <path class="cls-3" d="M178.44,126.05c-.43.03-.86.06-1.29.09-8.84.64-18.85,1.36-24.98,8.3-3.79,3.71-8.65,9.96-10.02,15.5,1.55.27,5.63,1.89,6.9,2.81,4.14-8.75,15.73-7.04,22.75-5.98,1.95-2.91,2.02-6.13,2.08-9.24.08-4.05.17-8.23,4.56-11.49"/>
          <path class="cls-3" d="M111.64,143.36c.27.28.58.61.91.95,2.54,2.65,5.99,6.25,7.19,8.89,1.21-.59,2.42-1.12,3.62-1.58,5.91-2.28,11.93-2.95,17.42-1.93.85-4.37,4.46-9.98,7.77-13.75-2.26-.62-4.67-.02-7.21.62-1.91.48-3.88.97-5.81.91l-.52-.04c-4.2-.3-7.82-.56-11.38-2.54-3.33-2.49-7.57-6.26-9.08-10.24-2.11.14-5.12-.32-7.61-1.16,2.44,3.07,2.63,6.95,2.82,10.7.16,3.18.32,6.48,1.9,9.16"/>
          <path class="cls-3" d="M145.67,84.73c4.04.92,17.16,4.79,15.49,15.67l-.02.12c5.93,3.99,2.75,9.62-.06,14.59-.67,1.18-1.3,2.3-1.79,3.35,1.07-.07,2.27-.1,3.44-.1,1.8,0,3.53.07,4.67.19,6.73-11.37-4.04-28.04-10.49-38.01-.37-.58-.73-1.13-1.06-1.65-2.25,2.34-6.07,2.06-10.1,1.75-3.26-.24-6.64-.49-9.19.72,1.53.46,3.15,1.1,4.85,1.77,1.4.55,2.85,1.13,4.27,1.6"/>
          <path class="cls-3" d="M167.35,119.91s-.05.01-.08,0c-10.52-1.06-27.83,3.41-36.62,9.41,7.14,2.22,14.05,3.24,21.12,3.1,4.39-4,10.15-7.6,15.45-9.63.7-3.46,3.11-5.52,5.44-7.51,1.78-1.52,3.46-2.96,4.4-4.96.81-2.2.21-4.83-1.54-6.7-1.56-1.67-3.69-2.35-5.73-1.83,1.08,3.56,1.97,11.9-.1,15.92-.59,1.14-1.38,1.88-2.35,2.19"/>
          <path class="cls-3" d="M140.16,108.63c-1.35.5-2.26,1.55-2.4,2.77.95.73,1.7,1.51,2.48,2.37.19-.4.45-.78.75-1.13v-4.23c-.28.04-.56.11-.83.21"/>
          <path class="cls-3" d="M144.92,110.38c-.17-.4-.36-.65-.88-1.11,0,0,0,0,0,0-.4-.4-.92-.67-1.5-.8v2.93c.69-.42,1.49-.76,2.38-1.01"/>
          <path class="cls-3" d="M122.18,107.99c-.31,1.64-.62,3.19-1.2,4.55,1.58.66,2.94,1.82,4.24,2.94,1.99,1.71,3.88,3.33,6.54,3.37-.09-.3-.25-.61-.48-.89-.67-.54-1.38-1.05-2.13-1.6-3.05-2.22-6.2-4.5-6.97-8.37"/>
          <path class="cls-3" d="M201.86,153.72c-.95-1.54-2.02-3.29-2.95-5.31-.3-.7-.88-1.9-1.39-2.88-3.45-6.2-9.31-4.2-14.98-2.27-2.79.95-5.68,1.93-8.18,1.88-.26.6-.6,1.25-.95,1.8,1.11.1,2.22.14,3.24.14,2.72-.31,3.35-.15,3.5.22.19.46-.5,1.03-2.08,2.25-1.82,1.42-4.56,3.54-6.05,6.15,1.26.53,5.23.9,8.59-.66,4.53-1.63,9.3-2.04,11.12-.96.44.26.69.6.75,1,0,.04,0,.08-.02.11-.3.6-.88.35-1.23.2l-.12-.05c-2.43-1.09-5.77-.15-9.31.84-3.76,1.06-7.65,2.15-10.54.71-2.51,4.27-6.51,10.2-12.63,13.42,11.85,5.95,21.13,1.89,29.33-1.7,5.41-2.37,10.53-4.61,15.61-3.56,2.57-4.39.77-7.31-1.7-11.33"/>
          <path class="cls-3" d="M127.57,113.35c2,1.63,5.35,2.83,5.65,5.63,3.27.29,6.85.37,9.71,1.73l.09-.07c-1.77-4.97-10.18-13.67-15.46-7.29"/>
          <path class="cls-3" d="M151.61,111.26c-3.6.44-8.79-.06-10.25,3.79,1.22,1.43,2.06,2.68,2.55,3.82.12.26.22.52.31.78,2.99-2.63,4.68-4.33,7.38-8.39"/>
          <path class="cls-3" d="M142.53,105.95v.9c1.71.29,3.25,1.35,3.81,3.23.36-.06.72-.1,1.11-.14-.39-1.57-1.69-3.07-3.32-4.11-.42.08-.87.13-1.35.13h-.25Z"/>
          <path class="cls-3" d="M137.87,104.84c-.55,1.39-1.42,2.42-2.83,3.35h0c-.68.44-1.49.84-2.1,1.33,1.21.07,2.39.42,3.5,1.02.5-2.29,2.48-3.56,4.56-3.75v-.89c-1.19-.13-2.25-.5-3.13-1.05"/>
          <path class="cls-3" d="M145.97,105.12c1.54,1.26,2.68,2.94,2.95,4.71,1.28-.09,3.2.26,3.97-.74-.95-1.12-1.51-1.91-2.99-3.21,0,0,0,0,0,0-.77-.72-1.66-1.37-2.62-1.95-.35.47-.78.88-1.3,1.2"/>
          <path class="cls-3" d="M135.18,100.92c-.29.02-.57.05-.85.09-.29,4.79-8.04,5.77-8.82,10.28.31.41.63.78.97,1.11,1.08-1.43,2.61-2.38,4.44-2.76.77-1.94,3.86-2.71,4.94-4.35.47-.52.54-.91.9-1.33-.83-.84-1.38-1.88-1.59-3.04"/>
          <path class="cls-3" d="M117.81,123.87c3.02,1.95,7.33,3.58,11.17,4.92,2.74-2.02,8.09-4.94,13.29-6.79-5.82-2.32-13.01.12-17.86-4.94-1.36-1.18-2.97-3.15-4.73-3.11-4.91.41-3.98,7.07-1.87,9.92"/>
          <path class="cls-3" d="M181.95,121.92c-.84-.09-1.67-.13-2.5-.13-5.82,0-11.21,2.12-15.62,4.34,6.96-1.82,15.15-.68,21.88-3.09-.81-.41-1.92-.83-3.76-1.12"/>
          <path class="cls-3" d="M111.73,107.79c.5-10.55,7.69-14.06,12.75-21.46-7.17.75-9.35-.99-11.67-2.83-1.08-.86-2.2-1.76-3.9-2.36-5.63,8.93-9.52,22.43,3.26,36.53-.71-3-.91-7.18-.45-9.88"/>
          <path class="cls-3" d="M148.9,103.04c1.65,1.07,3.9,3.4,4.72,4.62,1.73-3.9-1.36-7.1-4.72-4.62"/>
          <path class="cls-3" d="M87.74,143.7s0,0,0,0c5.19,1.91,9.94,3.68,16.26,5.81,4.1,1.57,9.74,2.64,13.25,4.99.4-.22.81-.45,1.21-.66-1.81-3.17-6.37-8.26-9.94-10.49-8.82-4.89-12.17-11-9.94-18.16.24-.65.38-1.23,1.11-1,.65.25.44.68.23,1.44-2.01,7.6,2.29,12.08,9.44,16.38-2.12-5.18-.25-11.83-3.11-16.73-1.26-2.3-3.23-3.3-5.13-4.79-4.42-4.29-.12-9.8,5.13-7.93-1.88-2.82-3.58-7.53-3.8-10.58-9.45-1.96-18.35.24-12.57,11.26-.04,3.99-3.51,10.18-10.09,12.47-2.73,6.67-.33,14.97,7.94,17.98"/>
          <path class="cls-3" d="M117.42,162.55c-1.33-.58-2.48-1.03-3.39-1.39-2.19-.87-3.19-1.26-3.25-1.92-.38-.73,3.23-2.73,5.08-3.92-5.68-2.61-13.34-5.92-19.77,2.11-.52.72-1.68-.15-1.1-.85,2.74-3.59,6.12-4.95,8.71-5.44-6-2-14.22-5.12-16.49-6.13-2.31,1.68-8.93,7.58-4.01,16.91,7.2,12.04,29.61,9.18,38.39,3.4-.89-.56-3.59-2.51-4.17-2.77,0,0,0,0,0,0"/>
          <path class="cls-3" d="M176.72,148.55c-9.1.16-22.5-4.68-26.83,5.81-.28.45-.68.16-1-.03-11.44-7.24-26.84-2.01-36.17,4.75,1.99.72,4.03,1.5,5.64,2.17,2.3,1.18,4.15,2.6,6.41,3.83,8.4,4.86,24.22,11.58,35.86,1.97,7.07-4.74,9.14-13.67,16.08-18.51"/>
          <path class="cls-3" d="M88.08,204.96h.42c4.15,0,6.17-7.07,6.19-7.14,0-.01.01-.03.02-.04.32-.97.32-1.77,0-2.3-.12-.23-.34-.45-.64-.62-.05-.01-.31-.1-.51-.1-.08,0-.14,0-.2,0-2.8,0-5.17,4.38-6.34,6.99-.32,1.18-.29,2.06.11,2.62.38.55.92.6.95.6"/>
          <path class="cls-3" d="M175.04,195.64c-.12-.28-.28-.45-.38-.54-.23-.29-.39-.34-.58-.4-.1-.02-.2-.03-.3-.03-2.28,0-4.99,4.8-6.15,7.45-.15.35-3.76,8.58-2.53,11.33.18.41.46.66.84.79.66.16,1.27.1,1.9-.22,1.3-.54,2.61-1.97,3.9-4.26.82-1.38,1.3-2.52,1.43-2.84l.28-.66c-1.12-.37-2.16-1.16-2.45-1.39-.71-.65-1.37-1.76-1.24-2.64.07-.32.32-.52.65-.52.24,0,.4.05.5.16.07.07.1.17.08.29-.06.59.09,1.13.41,1.52.14.2.29.38.48.56.32.28.6.48.85.62.32.18.67.33,1.04.46h0c1.03-2.88,1.56-4.86,1.65-6.25.15-1.39.02-2.58-.38-3.44"/>
          <path class="cls-3" d="M62.2,212.79c-1.14.27-1.91,1.13-1.73,1.92.19.79,1.26,1.21,2.4.94.33-.08.71-.29,1.09-.56.14-.08.37-.25.49-.36.09-.08.39-.29.73-.77.43-.61.49-.83.49-.83,0,0-2.34-.61-3.48-.34"/>
          <path class="cls-3" d="M138.27,202.36c.12-.2.22-.42.35-.67l.24-.54c.12-.4.31-1.06.41-1.8.22-1.6.11-2.9-.32-3.65-.18-.34-.34-.56-.57-.72-.2-.12-.38-.15-.58-.18-.06-.01-.12-.02-.19-.03-.07,0-.16-.01-.24-.01-3.53,0-6.42,7.38-6.54,7.7-4.26,9.94-2.63,11.83-2.03,12.17.09.04.21.11.26.11.05,0,.09,0,.12,0,1.33,0,2.8-1.12,4.49-3.44,1.49-2.01,2.52-4.22,2.63-4.47,0,0,0-.02.01-.03.54-1.3,1.11-2.57,1.53-3.5.17-.38.32-.7.42-.93"/>
          <path class="cls-3" d="M218.03,202.36c.11-.19.21-.39.33-.64l.26-.58c.12-.4.31-1.06.41-1.8.22-1.6.11-2.9-.32-3.65-.18-.35-.34-.56-.57-.72-.2-.12-.38-.15-.57-.18-.06,0-.12-.02-.19-.03-.07,0-.16-.01-.24-.01-3.53,0-6.42,7.38-6.54,7.7-4.26,9.94-2.63,11.83-2.03,12.17.09.04.21.11.26.11.05,0,.09,0,.12,0,1.33,0,2.8-1.12,4.49-3.44h0c1.49-2.01,2.52-4.23,2.63-4.47.55-1.33,1.13-2.6,1.55-3.52.17-.38.32-.7.42-.93"/>
          <path class="cls-3" d="M238.67,167.3c0-.07,0-.13,0-.19,0-.08,0-.18,0-.29l-1.39-100.15v-1.06s-1.02.34-1.02.34c-15.39,5.3-52.5,8.73-94.53,8.73s-79.13-3.43-94.53-8.73l-1-.35v1.06s-1.4,100.14-1.4,100.14c0,.11,0,.21,0,.29,0,.06,0,.12,0,.19l-.02,1.73c0,48.81,39.71,88.51,88.51,88.51h16.9c48.81,0,88.51-39.71,88.51-88.52l-.02-1.72ZM93.66,215.7c-.49,1.38-1.86,2.1-3.27,2.79-.85.42-1.88.8-2.85,1.04-.96.24-1.91.36-2.93.41-.72.03-1.54-.01-2.28-.08-.21-.02-.45-.05-.66-.08-1.36-.23-2.74-.58-4.01-1.06-1.27-.48-2.47-1.03-3.67-1.59-1.2-.56-2.42-1.19-3.56-1.75-1.14-.56-2.13-1.01-3.26-1.5-.51.58-1.21,1.24-1.83,1.66-.8.54-1.83,1.05-2.67,1.18-.8.12-1.3.1-1.92-.05s-.94-.46-1.26-.9c-.32-.45-.36-.91-.33-1.43.03-.52.21-.99.5-1.42.38-.56.92-.99,1.52-1.3s1.26-.48,1.89-.6c.62-.12,1.39-.11,1.93-.07.54.04,1.32.19,1.78.28,0,0,7.37-8.36,10.77-12.22,4.12-4.66,11.47-13.14,11.47-13.14-.4-.06-.8-.12-1.19-.2-.93-.19-1.84-.39-2.77-.62-.93-.23-1.95-.5-2.85-.77-1.01-.29-1.83-.54-2.85-.85-.54-.17-1.11-.36-1.73-.56-.62-.2-1.47-.46-2.13-.63-.66-.17-1.49-.35-2.1-.42-.61-.06-1.03-.02-1.54.16-.51.18-.84.47-1.17.89-.34.42-.53.97-.67,1.52-.14.55-.18,1.17-.12,1.73.06.56.23,1.08.45,1.57.22.48.54.9.96,1.1.42.21.78.2,1.15.1.08-.02.06-.04.05-.07-.03-.18.09-.3.27-.4.18-.1.5-.07.67.03.27.17.32.7.06.92-.35.31-1.5.65-2.56.34-.97-.28-2.3-1.48-2.57-3.28-.32-2.15.02-4.66,1.35-5.86,1.78-1.6,3.51-1.33,5.98-.94,1.61.26,4.34,1.37,6.11,1.95.03.01.12.04.15.06.65.21,1.1.41,1.8.62,2.26.67,4.7,1.12,7.06,1.5.55-.42,1.32-.52,1.83-.07.51.45.49.8.16,1.38-.08.13.07-.08-.24.29,0,0-9.23,10.34-13.74,15.53-3.33,3.84-10.11,11.3-10.11,11.3.85.44,1.57.8,2.47,1.25.99.5,2.45,1.29,3.4,1.76,1.29.65,2.29,1.2,3.49,1.76,1.21.56,2.42,1.01,3.68,1.29.96.21,1.92.27,2.84.27.92,0,1.81-.16,2.64-.35.82-.19,1.83-.57,2.48-.85,1.1-.47,1.81-.93,2.44-1.52.21-.2.48-.59.53-.83.04-.19.51-.4.75-.15s.35.46.2.87M105.56,211.34s0,0,0,0c-.66.8-1.38,1.55-2.25,2.34-1,.89-2,1.42-2.91,1.53-.9.11-2.51.01-3.24-1.91-.47-1.31-.23-3.53.71-6.6-.82,1.08-1.66,2.09-2.47,3-3.37,3.83-6.34,5.78-8.83,5.78-.97,0-1.71-.14-2.31-.44-1.25-.52-2.15-1.43-2.68-2.7-1.66-4.04.98-10.55,1.1-10.82,3.05-7.5,8.22-8.08,9.73-8.08.42,0,.82.04,1.18.11l.12.03c.2.05.42.1.61.19.57.26,1.02.63,1.35,1.11l.11.26c.14.35.26.68.35,1.08.24,1.02.4,3.19-1.15,6.22-2.32,4.45-6.38,3.96-7.62,3.44-.35-.18-.77-.39-1.1-.88-.11-.16-.22-.33-.28-.49-.86,2.61-2.12,7.27-.89,9.1.32.47.78.73,1.39.77,2.07.1,4.89-1.75,8.12-5.4,2.7-3,4.6-6.03,4.68-6.16l.28-.69c.88-2,2.94-6.69,3.32-8.48.02-.13.12-.24.24-.3.13-.06.28-.05.41.02,1.61,1.07,3.2,2.99,1.71,6.11-1.89,3.86-6.32,12.91-5.04,14.47.06.06.25.1.48.1,1.13-.33,2.57-1.6,4.28-3.76.97-1.22,1.72-2.38,1.81-2.5.71-1.05,1.29-2.08,1.65-2.9,3.01-6.55,2.28-9.95,1.82-11.11-.03-.12,0-.23.08-.31.08-.08.19-.11.28-.09,1.64.49,2.31,1.53,2.32,1.53.02.02,2.56,3.03-5.49,13.86,0,0-.77,1.2-1.86,2.55M121.82,203.21c-.27-.03-.37-.23-.4-.31-.06-.17-.01-.37.12-.5.78-.7,1.39-1.52,1.87-2.51.81-1.58,1.13-2.97.82-3.63-.1-.22-.27-.36-.52-.41h0c-.6-.07-2.42.65-7.15,8.51-2.29,3.84-4.32,7.69-4.88,8.78-.16.7-.22,1.3-.17,1.78,0,.17-.07.31-.2.39-.07.04-.15.06-.23.06-.08,0-.15-.02-.23-.06-.74-.35-1.24-.91-1.51-1.69-1.07-3.06,1.65-9.33,4.75-15.64.06-.11,1.37-2.53,1.26-4.03,0-.2.08-.37.22-.47.14-.1.31-.13.49-.08,1.1.31,1.86,1.07,2.25,2.25,0,0,.65,1.59-.33,3.53-.66,1.23-1.25,2.41-1.81,3.54l-.55,1.1c1.75-2.92,3.2-5.04,4.44-6.49,1.54-1.81,2.7-2.63,3.68-2.56h0c.26,0,.76.05,1.18.16,1.22.45,2.01,1.17,2.36,2.16.41,1.15.15,2.63-.7,4.06-1.4,2.28-3.59,2.28-4.78,2.07M158.85,203.21c-.27-.03-.37-.23-.4-.31-.06-.17-.01-.37.12-.5.78-.7,1.39-1.52,1.87-2.51.81-1.58,1.13-2.97.82-3.63-.1-.22-.27-.36-.52-.41h0c-.59-.07-2.42.65-7.15,8.51-2.29,3.84-4.32,7.69-4.88,8.78-.16.71-.22,1.31-.17,1.78,0,.17-.07.31-.2.39-.13.08-.3.09-.46,0-1.99-.94-2.28-3.36-.93-7.61-.58.7-1.15,1.38-1.7,2-1.65,1.92-3.07,3.32-4.33,4.31-1.06.83-1.92,1.31-2.66,1.47-.06,0-.23.02-.51.06h0c-.96,0-2.19-.34-2.7-1.96-.17-.61-.17-1.42,0-2.3-.07.1-.15.19-.22.28-.1.12-.19.22-.27.33-.99,1.36-1.97,2.39-2.91,3.05-.77.56-1.65.87-2.47.87-.44,0-.8-.07-1.17-.22-.05-.01-1.68-.46-2.57-2.68,0-.01-1.9-3.35,1.38-11.38,3.05-7.47,8.19-8.06,9.69-8.06.48,0,.94.05,1.35.15h.04c.25.06.57.12.85.34.47.26.86.64,1.18,1.18.38.7.55,1.59.55,2.79.71-1.51,1.47-3.18,1.75-4.14.06-.17.2-.3.38-.35.17-.05.33-.02.46.08,1.19.85,2.94,2.76,1.14,6l-.6,1.1c-2.49,4.57-6.66,12.22-5.62,13.6.09.17.33.1.4.08.53-.2,1.15-.58,1.86-1.14,1.29-1.04,2.74-2.47,4.17-4.14,1.47-1.67,2.85-3.42,3.75-4.59.74-1.79,1.67-3.83,2.94-6.42.06-.11,1.37-2.53,1.26-4.03,0-.2.08-.37.22-.47.14-.1.31-.13.49-.08,1.1.31,1.86,1.07,2.25,2.25,0,0,.65,1.59-.33,3.53-.66,1.23-1.24,2.41-1.81,3.54l-.55,1.1c1.75-2.92,3.21-5.04,4.44-6.49,1.57-1.84,2.7-2.64,3.69-2.56h0c.26,0,.76.05,1.18.16,1.22.45,2.01,1.17,2.36,2.16.41,1.15.15,2.63-.7,4.07-1.4,2.28-3.59,2.28-4.78,2.07M230.22,203.11c-.15.25-2.48,3.51-5.21,6.6-1.65,1.91-3.07,3.32-4.33,4.31-1.06.83-1.93,1.31-2.66,1.47-.06,0-.23.02-.51.06,0,0-.01,0-.02,0-.94,0-2.18-.34-2.69-1.96-.17-.61-.17-1.42,0-2.3-.07.1-.15.19-.23.28-.1.12-.19.22-.27.33-.99,1.37-1.97,2.39-2.91,3.05-.77.56-1.65.87-2.47.87-.44,0-.8-.07-1.17-.22-.05-.01-1.69-.47-2.57-2.68,0,0-.72-1.31-.49-4.2-.28.33-.57.67-.87,1-1.58,1.84-3.02,3.29-4.27,4.3-.82.61-1.6,1.07-2.3,1.36-.33.11-.66.17-.94.17-.95,0-2.17-.34-2.63-1.97-.93-3.16,2.85-10.95,3.02-11.28,1.12-2.11,3.09-6.41,2.55-7.57-.08-.16-.2-.26-.39-.3-.28,0-1.2.31-3.1,3.17-.91,1.33-1.91,2.98-2.75,4.53-.49,1.02-.95,1.85-1.04,2.01-2.05,3.92-4.22,8.24-4.06,9.95.02.07,0,.16-.07.24-.08.1-.22.17-.34.18-1.45-.25-2.19-.87-2.44-2.02-.54-2.72,1.67-7.09,2.85-9.44l.08-.16c.11-.22.21-.42.3-.6,1.12-2.11,3.09-6.41,2.55-7.57-.08-.16-.2-.26-.39-.3-.28,0-1.2.31-3.1,3.17-1.67,2.44-3.41,5.74-4.56,7.92-2.34,4.89-3.33,7.79-3.23,9.42,0,.17-.08.31-.2.38-.13.08-.3.09-.46,0-2.24-1.06-2.32-4.09-.26-9.53-.77.48-1.54.79-2.29.91-.17,0-.32.02-.45.03-.13.01-.24.02-.34.02-.38,0-.77-.05-1.15-.16l-.27.71c-.78,1.9-2.91,6.46-5.87,7.75-.67.27-1.18.38-1.65.38-.38,0-.79-.08-1.37-.27-1.45-.51-2.47-1.46-3.02-2.82-1.75-4.32,1.72-11.41,1.75-11.48,3.46-7.64,8.58-7.9,10.26-7.36.16.05.27.11.38.16.21.1.89.5,1.38,1.48.49.97.66,2.35.49,3.98-.17,1.82-.72,4-1.65,6.49.43.05.82.06,1.26,0,1.37-.21,2.57-1.11,3.35-1.84.69-1.63,1.57-3.52,2.68-5.79.06-.11,1.37-2.53,1.26-4.03,0-.2.08-.37.22-.47.14-.1.32-.13.49-.08,1.1.31,1.86,1.07,2.26,2.26.03.06.21.47.21,1.07,1.6-2.25,2.82-3.33,3.83-3.38h0c.23,0,.93.11,1.26.22,2.27.85,2.75,2.67,2.75,4.04.09-.17.21-.34.3-.48l.09-.12c1.59-2.37,2.93-3.6,3.99-3.65h0c.23,0,.93.11,1.26.22,3.7,1.39,2.66,5.19,2.25,6.33-.69,1.95-1.92,4.16-1.98,4.25-2.44,4.61-4.58,9.03-3.78,10.09.16.08.31.1.44.05.54-.2,1.15-.59,1.8-1.14,1.15-.87,2.59-2.31,4.18-4.15.63-.71,1.3-1.5,1.98-2.35.31-1.59.85-3.32,1.59-5.13,3.1-7.59,8.57-8.49,11.03-7.91h.04c.25.06.57.12.85.34.47.26.86.64,1.18,1.18.38.7.55,1.59.55,2.79.71-1.51,1.47-3.18,1.75-4.14.06-.17.2-.3.38-.35.17-.05.33-.02.46.08,1.19.85,2.93,2.76,1.15,6l-.6,1.09c-2.49,4.57-6.66,12.22-5.62,13.61.09.17.33.1.4.08.53-.2,1.16-.58,1.86-1.14,1.29-1.04,2.74-2.47,4.17-4.14,2.73-3.09,5.14-6.47,5.16-6.5.15-.25.47-.32.75-.16.12.09.19.22.21.37.02.15-.01.3-.09.4M209.66,173.63c-18.14,1.94-42.26,3.01-67.93,3.01s-49.79-1.07-67.93-3.01c-21.48-2.3-27.36-5.13-27.48-6.48v-.09c.15-1.35,6.05-4.18,27.48-6.47,2.3-.25,4.7-.48,7.18-.7-.18-.51-.32-1.01-.43-1.5-2.39.21-4.7.44-6.91.67-17.92,1.92-24.71,4.09-27.28,5.75l1.35-97.06c.09.03.18.06.27.08.12.04.25.08.38.12.14.04.28.08.41.13.13.04.26.08.39.11.15.04.29.08.44.13.13.04.26.07.39.11.15.04.3.08.46.13.13.04.27.07.4.11.16.04.32.08.47.12.14.04.28.07.42.11.16.04.33.08.49.12.14.03.28.07.42.1.17.04.35.08.52.12.14.03.28.07.43.1.18.04.36.08.54.12.14.03.29.07.43.1.19.04.38.08.56.12.15.03.29.06.44.1.19.04.39.08.58.12.15.03.3.06.45.1.2.04.41.08.62.12.15.03.29.06.44.09.22.04.44.09.66.13.14.03.29.06.43.08.24.05.49.09.74.14.12.02.24.04.36.07.29.05.59.11.88.16.09.01.17.03.26.05.35.06.71.12,1.08.19.03,0,.06,0,.09.01,1.18.2,2.4.4,3.66.59.11.02.23.03.34.05.3.05.61.09.92.14.15.02.3.04.45.06.28.04.56.08.84.12.16.02.32.04.47.07.28.04.56.08.85.12.15.02.31.04.47.06.29.04.57.08.86.12.18.02.36.05.54.07.27.03.54.07.81.1.19.02.38.05.57.07.27.03.54.07.81.1.19.02.39.05.59.07.27.03.54.07.81.1.2.02.39.05.59.07.28.03.56.06.84.1.2.02.39.04.59.07.28.03.57.06.85.09.21.02.42.04.62.07.28.03.56.06.84.09.21.02.42.04.63.07.28.03.57.06.85.09.21.02.43.04.65.06.28.03.57.06.85.08.22.02.45.04.67.06.28.03.57.05.85.08.23.02.46.04.69.06.29.03.57.05.86.08.23.02.45.04.68.06.29.03.59.05.88.08.23.02.46.04.68.06.3.02.6.05.9.07.23.02.46.04.7.06.3.02.59.05.89.07.24.02.49.04.74.06.29.02.58.05.87.07.25.02.51.04.76.06.29.02.59.04.88.07.25.02.5.04.74.05.3.02.61.04.92.07.25.02.49.03.74.05.31.02.61.04.92.06.25.02.51.03.76.05.31.02.61.04.92.06.25.02.51.03.76.05.31.02.61.04.92.06.26.02.53.03.8.05.31.02.61.04.92.05.26.01.53.03.79.04.31.02.62.03.93.05.27.01.54.03.82.04.31.02.62.03.93.05.27.01.53.03.8.04.32.02.64.03.96.05.27.01.54.03.81.04.32.01.64.03.96.04.27.01.54.02.81.04.32.01.65.03.97.04.28.01.55.02.83.04.31.01.63.03.94.04.29.01.58.02.87.04.32.01.64.02.96.04.28.01.57.02.85.03.32.01.65.02.97.03.29.01.58.02.87.03.32.01.65.02.97.03.29,0,.58.02.87.03.32,0,.64.02.96.03.3,0,.6.02.89.03.33,0,.65.02.98.03.29,0,.58.02.88.02.33,0,.66.02.99.03.3,0,.59.01.89.02.33,0,.67.01,1.01.02.29,0,.58.01.87.02.34,0,.67.01,1.01.02.3,0,.6.01.89.02.33,0,.66.01,1,.02.3,0,.6.01.9.01.36,0,.71.01,1.07.01.28,0,.55,0,.83.01.37,0,.75,0,1.12.01.27,0,.54,0,.81,0,.34,0,.69,0,1.03,0,.31,0,.61,0,.91,0,.34,0,.68,0,1.01,0,.31,0,.61,0,.92,0,.39,0,.78,0,1.17,0,.26,0,.52,0,.78,0,.65,0,1.3,0,1.95,0s1.3,0,1.95,0c.26,0,.52,0,.78,0,.39,0,.78,0,1.17,0,.27,0,.54,0,.82,0,.38,0,.75,0,1.13,0,.27,0,.54,0,.81,0,.38,0,.75,0,1.13-.01.27,0,.54,0,.81,0,.37,0,.75,0,1.12-.01.27,0,.53,0,.79-.01.38,0,.75,0,1.12-.02.27,0,.53,0,.8-.01.37,0,.73-.01,1.1-.02.28,0,.56-.01.84-.02.35,0,.7-.01,1.05-.02.28,0,.56-.01.85-.02.35,0,.7-.01,1.05-.02.27,0,.54-.01.81-.02.36,0,.71-.02,1.07-.03.27,0,.54-.01.81-.02.35,0,.7-.02,1.05-.03.28,0,.55-.02.83-.02.34,0,.69-.02,1.03-.03.27,0,.55-.02.82-.03.34-.01.68-.02,1.02-.03.27,0,.54-.02.81-.03.34-.01.68-.02,1.03-.04.26,0,.52-.02.79-.03.34-.01.69-.03,1.03-.04.26-.01.53-.02.79-.03.34-.01.67-.03,1-.04.27-.01.53-.02.8-.03.34-.01.67-.03,1.01-.04.25-.01.5-.02.76-.03.34-.02.69-.03,1.03-.05.25-.01.5-.02.75-.04.34-.02.68-.03,1.01-.05.25-.01.5-.02.75-.04.33-.02.66-.03.99-.05.25-.01.51-.03.76-.04.33-.02.65-.04.98-.05.25-.01.5-.03.75-.04.33-.02.65-.04.97-.06.25-.01.49-.03.74-.04.33-.02.66-.04.98-.06.23-.01.46-.03.69-.04.34-.02.68-.04,1.01-.07.23-.01.45-.03.67-.04.33-.02.66-.04.99-.07.23-.01.46-.03.69-.05.32-.02.65-.04.97-.07.23-.02.45-.03.67-.05.33-.02.66-.05.98-.07.22-.02.43-.03.65-.05.32-.02.65-.05.97-.07.22-.02.44-.03.65-.05.32-.02.65-.05.97-.08.21-.02.41-.03.62-.05.33-.03.65-.05.97-.08.2-.02.41-.03.61-.05.32-.03.65-.06.97-.08.2-.02.4-.04.59-.05.32-.03.64-.06.97-.09.19-.02.39-.04.58-.05.32-.03.65-.06.97-.09.18-.02.36-.04.54-.05.33-.03.66-.07.99-.1.17-.02.35-.03.52-.05.32-.03.64-.07.96-.1.18-.02.36-.04.53-.05.32-.03.63-.07.95-.1.17-.02.35-.04.52-.06.32-.03.64-.07.96-.1.16-.02.32-.04.48-.05.33-.04.66-.07.99-.11.15-.02.29-.03.43-.05.33-.04.66-.08.99-.12.14-.02.28-.03.42-.05.34-.04.67-.08,1-.12.13-.02.25-.03.38-.05.34-.04.67-.09,1-.13.12-.02.24-.03.37-.05.35-.05.69-.09,1.03-.14.1-.01.2-.03.3-.04.36-.05.71-.1,1.07-.15.08-.01.16-.02.25-.03.4-.06.81-.11,1.21-.17.03,0,.05,0,.08-.01,2.14-.31,4.19-.64,6.12-.98.05,0,.09-.02.14-.02.34-.06.67-.12,1.01-.18.07-.01.14-.03.22-.04.3-.06.6-.11.89-.17.11-.02.21-.04.32-.06.26-.05.51-.1.76-.15.13-.03.25-.05.37-.07.23-.05.46-.09.69-.14.13-.03.26-.05.38-.08.22-.05.43-.09.65-.14.13-.03.26-.06.39-.08.21-.04.41-.09.61-.14.14-.03.27-.06.4-.09.19-.04.38-.09.57-.13.14-.03.28-.07.41-.1.18-.04.36-.08.53-.13.14-.03.28-.07.42-.1.17-.04.34-.08.5-.12.14-.04.28-.07.42-.11.16-.04.32-.08.48-.12.14-.04.27-.07.4-.11.15-.04.31-.08.46-.12.14-.04.27-.08.4-.11.14-.04.29-.08.43-.12.13-.04.27-.08.4-.12.13-.04.27-.08.4-.12.13-.04.26-.08.39-.12.09-.03.18-.05.26-.08l1.34,97.07c-2.57-1.66-9.36-3.83-27.28-5.75-1.34-.14-2.72-.28-4.13-.42.15.51.25,1.04.3,1.57,1.25.12,2.47.25,3.67.37,21.44,2.3,27.34,5.12,27.48,6.47v.09c-.11,1.35-5.99,4.18-27.48,6.48"/>
        </g>
      </g>
    </g>
  </g>
</svg>